<svg width="38" height="46" viewBox="0 0 38 46" fill="none" xmlns="http://www.w3.org/2000/svg">
<g clip-path="url(#clip0_1_43)">
<mask id="mask0_1_43" style="mask-type:luminance" maskUnits="userSpaceOnUse" x="0" y="0" width="38" height="47">
<path d="M0 0H37.9323V46.2292H0V0Z" fill="white"/>
</mask>
<g mask="url(#mask0_1_43)">
<path d="M23.0355 38.0114C23.0899 38.0312 23.08 38.1054 23.174 38.333C23.2333 38.2737 23.4956 38.1104 23.55 38.0461C27.0528 33.7517 31.1246 30.8623 36.3837 28.9724C36.5421 28.913 36.7103 28.6805 36.735 28.5073C36.7894 28.1462 36.7498 28.0868 36.7498 27.6663C36.5074 27.6663 36.3343 27.6415 36.166 27.6663C31.8964 28.3094 27.3942 30.6743 23.9458 33.2569C23.7578 33.4004 23.5797 33.6478 23.5302 33.8754C23.1591 35.5822 23.4708 35.696 23.1245 37.4029C23.0849 37.6058 23.0651 37.8086 23.0355 38.0114ZM24.1684 45.0566C22.4022 38.9564 18.5976 34.4987 13.66 30.897C9.95433 28.1858 5.81824 26.5432 1.10824 26.0979C1.2913 26.7757 0.781711 27.4387 1.72668 27.79C9.96917 30.8871 15.9655 36.3392 19.2259 44.6213C19.2952 44.7944 19.503 45.0319 19.6514 45.0369C21.1158 45.0665 22.5852 45.0566 24.1684 45.0566ZM36.7647 30.2538C36.4233 30.3429 36.2551 30.3725 36.0918 30.4319C31.0504 32.3466 26.9736 35.5575 23.639 39.748C23.5104 39.9113 23.5055 40.2774 23.5896 40.4951C24.1239 41.9002 24.7225 43.1271 25.2569 44.5372C25.3855 44.8736 25.4943 45.0418 25.8951 45.0319C27.0281 45.0022 28.166 45.0468 29.299 45.0171C32.683 44.928 35.8296 42.6076 36.3392 39.278C36.7894 36.2897 36.646 33.3757 36.7647 30.2538ZM17.8208 44.8835C16.6977 38.9267 7.48554 30.8079 1.27646 28.9526V29.5117C1.27646 32.1042 1.27151 34.5383 1.27646 37.1357C1.27646 41.628 4.51705 44.8785 8.99947 44.8835C11.8393 44.8835 14.6792 44.8835 17.5141 44.8835H17.8208ZM23.6687 31.7183C27.2359 29.1604 31.6045 27.2705 35.9681 26.6916C36.5074 26.6174 36.6608 26.2859 36.6558 25.7516C36.6361 20.3341 36.6509 14.6742 36.6361 9.25672C36.6361 8.64324 36.5717 8.01985 36.4332 7.42616C35.5921 3.73534 32.589 1.30613 28.7894 1.29129C22.2241 1.26655 15.6637 1.2715 9.09347 1.29129C7.3668 1.29624 5.75392 1.7712 4.35874 2.8349C2.24122 4.44283 1.24183 6.61477 1.22698 9.23693C1.20225 13.9222 1.22204 18.6074 1.22204 23.2927C1.22204 24.6978 1.21709 24.7126 2.60238 24.9353C7.37669 25.7071 11.6365 27.6267 15.4064 30.6447C17.2123 31.8667 18.3997 33.7764 18.4838 33.5488M37.7938 23.1294C37.7938 27.8988 37.7987 32.6682 37.7938 37.4375C37.7938 42.2762 34.0139 46.061 29.1753 46.061C22.2636 46.0659 15.352 46.0659 8.4404 46.061C3.90357 46.061 0.0692749 42.2118 0.0692749 37.6602C0.0692749 28.0769 0.0692749 18.4937 0.0692749 8.9104C0.0692749 3.92829 3.81946 0.188004 8.80651 0.188004C15.5549 0.188004 22.2983 0.188004 29.0466 0.188004C34.0733 0.188004 37.7938 3.92335 37.7938 8.96482C37.7987 13.6897 37.7938 18.4096 37.7938 23.1294Z" fill="#008551"/>
</g>
<path d="M24.3416 28.8042C24.3416 28.8042 21.284 29.7343 18.7608 29.5216C15.921 29.294 13.4522 28.443 11.2555 26.944C4.89305 22.605 3.93324 14.1498 9.15777 8.73725C14.4417 3.26534 23.8716 2.95365 29.5067 8.05944C34.375 12.4775 35.1172 19.2061 31.0454 24.2426C29.3781 26.3057 27.0627 27.8394 24.5741 28.725L24.3416 28.8042Z" fill="#7EBA29"/>
<path d="M30.6199 15.9358C30.4517 16.3168 30.2241 16.6779 29.9767 17.0193C28.5717 19.3347 26.4146 20.6112 23.9507 21.2989C23.4609 21.4325 23.4015 21.6353 23.4659 22.0855C23.6687 23.5252 23.8072 24.3366 23.9656 25.7813C24.0249 26.3453 24.0695 27.696 24.0447 28.6014C24.0398 28.7696 24.0348 30.8623 24.0348 31.2631C24.0348 31.2631 24.0695 33.2371 23.9804 33.9149C23.8221 35.1518 23.4411 36.7251 23.2185 37.8284C23.1789 38.0312 23.1591 38.239 23.1294 38.4419L22.9513 39.2632L20.2896 35.8395L17.9197 33.0788C17.9395 33.0145 18.0731 32.3565 18.3056 31.3521C18.4293 30.8079 18.6322 30.1598 18.7509 29.4523C19.2011 26.7757 19.5722 23.2927 19.7503 21.8134C19.1319 21.8134 18.746 21.8035 18.3254 21.7986C14.8474 21.7689 11.7057 20.9773 9.17756 18.4541C8.9945 18.3007 8.91534 17.895 8.7966 17.6674C9.03408 17.6328 9.2864 17.5388 9.50904 17.5784C12.8189 18.1869 16.1238 18.0682 19.4634 17.8159C19.869 17.7862 19.9927 17.7268 19.9927 17.3112C19.9927 16.1634 20.0125 14.8721 19.9334 13.7292C19.8394 12.3291 19.592 11.0725 19.4337 9.67232C19.4139 9.514 19.6266 9.27157 19.7305 9.2122C19.8493 9.14788 20.0867 9.2122 20.2352 9.29631C20.4331 9.4101 20.6112 9.57831 20.7695 9.74653C21.6749 10.7212 22.4071 11.9729 22.6743 13.2444C22.9761 14.6594 23.2383 15.8814 23.268 17.4844C24.2129 17.3112 25.2964 17.2964 26.2562 16.9698C27.5822 16.5246 28.7399 15.916 30.0312 15.3669C30.2241 15.2877 30.4517 15.2778 30.6644 15.2382C30.6545 15.4708 30.709 15.733 30.6199 15.9358Z" fill="#42210B"/>
</g>
<defs>
<clipPath id="clip0_1_43">
<rect width="37.74" height="46" fill="white"/>
</clipPath>
</defs>
</svg>
